<svg width="124" height="38" viewBox="0 0 124 38" fill="none" xmlns="http://www.w3.org/2000/svg">
<path fill-rule="evenodd" clip-rule="evenodd" d="M19 38C29.4934 38 38 29.4934 38 19C38 8.50659 29.4934 0 19 0C8.50659 0 0 8.50659 0 19C0 29.4934 8.50659 38 19 38ZM17.999 26H20.8027V13.3965H16.751L14.1758 20.8496C14 21.3652 13.833 21.9717 13.6748 22.6689H13.6221C13.5283 22.0654 13.3789 21.4648 13.1738 20.8672L10.5986 13.3965H6.44141V26H8.99902V19.0303C8.99902 18.0928 8.96094 17.0029 8.88477 15.7607H8.96387C9.14551 16.7041 9.27734 17.29 9.35938 17.5186L12.3652 26H14.6855L17.6387 17.4307C17.7559 17.0908 17.8877 16.5342 18.0342 15.7607H18.1045C18.0342 16.7451 17.999 17.6445 17.999 18.459V26ZM28.3086 26.7207L31.9648 17H29.2139L27.5176 22.4932C27.377 22.9443 27.2803 23.3398 27.2275 23.6797H27.1924C27.1338 23.2168 27.0518 22.8154 26.9463 22.4756L25.2676 17H22.1914L25.8477 25.9824L25.373 27.0986C25.0918 27.7725 24.5938 28.1094 23.8789 28.1094C23.4453 28.1094 23.0439 28.001 22.6748 27.7842V29.999C23.1084 30.1514 23.6621 30.2275 24.3359 30.2275C26.1055 30.2275 27.4297 29.0586 28.3086 26.7207Z" fill="#01BAB3"/>
<path d="M60.9219 13.4961L57.2207 27.5H53.7246L51.4004 18.5156C51.2767 18.0469 51.2018 17.5228 51.1758 16.9434H51.1367C51.0781 17.5814 50.9935 18.1055 50.8828 18.5156L48.5 27.5H44.8574L41.1758 13.4961H44.623L46.5957 22.8223C46.6803 23.2194 46.7422 23.7533 46.7812 24.4238H46.8398C46.8659 23.9225 46.9603 23.3757 47.123 22.7832L49.6621 13.4961H53.041L55.3359 22.9004C55.4206 23.2454 55.4954 23.7467 55.5605 24.4043H55.5996C55.6257 23.89 55.694 23.3691 55.8047 22.8418L57.7383 13.4961H60.9219ZM66.6152 27.7441C64.9486 27.7441 63.6367 27.2786 62.6797 26.3477C61.7292 25.4102 61.2539 24.1406 61.2539 22.5391C61.2539 20.8854 61.7487 19.5931 62.7383 18.6621C63.7279 17.7246 65.0658 17.2559 66.752 17.2559C68.4121 17.2559 69.7142 17.7246 70.6582 18.6621C71.6022 19.5931 72.0742 20.8268 72.0742 22.3633C72.0742 24.0234 71.5859 25.3353 70.6094 26.2988C69.6393 27.2624 68.3079 27.7441 66.6152 27.7441ZM66.6934 19.6191C65.9642 19.6191 65.3978 19.8698 64.9941 20.3711C64.5905 20.8724 64.3887 21.582 64.3887 22.5C64.3887 24.4206 65.1634 25.3809 66.7129 25.3809C68.1908 25.3809 68.9297 24.3945 68.9297 22.4219C68.9297 20.5534 68.1842 19.6191 66.6934 19.6191ZM80.5996 20.2832C80.2285 20.0814 79.7956 19.9805 79.3008 19.9805C78.6302 19.9805 78.1061 20.2279 77.7285 20.7227C77.3509 21.2109 77.1621 21.8783 77.1621 22.7246V27.5H74.0762V17.5H77.1621V19.3555H77.2012C77.6895 18.0013 78.5684 17.3242 79.8379 17.3242C80.1634 17.3242 80.4173 17.3633 80.5996 17.4414V20.2832ZM92.0645 27.5H88.3633L85.1699 22.5391H85.1309V27.5H82.0449V12.6953H85.1309V22.1191H85.1699L88.1484 17.5H91.8105L88.2266 22.1973L92.0645 27.5ZM97.709 27.7441C96.0423 27.7441 94.7305 27.2786 93.7734 26.3477C92.8229 25.4102 92.3477 24.1406 92.3477 22.5391C92.3477 20.8854 92.8424 19.5931 93.832 18.6621C94.8216 17.7246 96.1595 17.2559 97.8457 17.2559C99.5059 17.2559 100.808 17.7246 101.752 18.6621C102.696 19.5931 103.168 20.8268 103.168 22.3633C103.168 24.0234 102.68 25.3353 101.703 26.2988C100.733 27.2624 99.4017 27.7441 97.709 27.7441ZM97.7871 19.6191C97.0579 19.6191 96.4915 19.8698 96.0879 20.3711C95.6842 20.8724 95.4824 21.582 95.4824 22.5C95.4824 24.4206 96.2572 25.3809 97.8066 25.3809C99.2845 25.3809 100.023 24.3945 100.023 22.4219C100.023 20.5534 99.278 19.6191 97.7871 19.6191ZM114.672 27.5H111.596V25.9766H111.547C110.785 27.1549 109.766 27.7441 108.49 27.7441C106.173 27.7441 105.014 26.3411 105.014 23.5352V17.5H108.09V23.2617C108.09 24.6745 108.65 25.3809 109.77 25.3809C110.323 25.3809 110.766 25.1888 111.098 24.8047C111.43 24.4141 111.596 23.8867 111.596 23.2227V17.5H114.672V27.5ZM123.324 27.3828C122.868 27.6237 122.182 27.7441 121.264 27.7441C119.089 27.7441 118.002 26.6146 118.002 24.3555V19.7754H116.381V17.5H118.002V15.3418L121.078 14.4629V17.5H123.324V19.7754H121.078V23.8184C121.078 24.86 121.492 25.3809 122.318 25.3809C122.644 25.3809 122.979 25.2865 123.324 25.0977V27.3828Z" fill="#333333"/>
</svg>
