<svg width="52" height="52" viewBox="0 0 52 52" fill="none" xmlns="http://www.w3.org/2000/svg">
<g clip-path="url(#clip0_26_289)">
<path opacity="0.1" d="M51.9958 4.00001C51.9958 1.79087 50.2049 0 47.9958 0H4.04981C1.84067 0 0.0498047 1.79086 0.0498047 4V47.946C0.0498047 50.1551 1.84067 51.946 4.0498 51.946H47.9958C50.2049 51.946 51.9958 50.1551 51.9958 47.946V4.00001Z" fill="#009988"/>
<path d="M28.4168 24.7355H8.90161V44.2507H28.4168V24.7355Z" fill="#009988"/>
<path d="M28.4167 24.7355C28.4167 32.8689 35.0096 39.4618 43.143 39.4618V24.7355H28.4167Z" fill="#007468"/>
<path d="M29.5573 7.69617V11.9558H25.2968V16.2162H21.0372V20.4759H16.7776V24.7355H33.8169V20.4759V16.2162V11.9558V7.69617H29.5573Z" fill="#FFBA00"/>
<path d="M38.48 24.7354C41.0554 24.7354 43.1431 22.6476 43.1431 20.0723C43.1431 17.4969 41.0554 15.4092 38.48 15.4092C35.9047 15.4092 33.8169 17.4969 33.8169 20.0723C33.8169 22.6476 35.9047 24.7354 38.48 24.7354Z" fill="#009988"/>
<path d="M43.143 39.4618H28.4167V44.2498H43.143V39.4618Z" fill="#FFBA00"/>
</g>
<defs>
<clipPath id="clip0_26_289">
<rect width="52" height="52" fill="white"/>
</clipPath>
</defs>
</svg>
