<svg width="25" height="25" viewBox="0 0 25 25" fill="none" xmlns="http://www.w3.org/2000/svg">
<path d="M20.3125 12.5C20.3125 12.2928 20.3948 12.0941 20.5413 11.9476C20.6878 11.8011 20.8865 11.7188 21.0938 11.7188C21.301 11.7188 21.4997 11.8011 21.6462 11.9476C21.7927 12.0941 21.875 12.2928 21.875 12.5V21.0938C21.875 21.301 21.7927 21.4997 21.6462 21.6462C21.4997 21.7927 21.301 21.875 21.0938 21.875H3.90625C3.69905 21.875 3.50034 21.7927 3.35382 21.6462C3.20731 21.4997 3.125 21.301 3.125 21.0938V3.90625C3.125 3.69905 3.20731 3.50034 3.35382 3.35382C3.50034 3.20731 3.69905 3.125 3.90625 3.125H12.5C12.7072 3.125 12.9059 3.20731 13.0524 3.35382C13.1989 3.50034 13.2812 3.69905 13.2812 3.90625C13.2812 4.11345 13.1989 4.31216 13.0524 4.45868C12.9059 4.60519 12.7072 4.6875 12.5 4.6875H4.6875V20.3125H20.3125V12.5Z" fill="white"/>
<path d="M11.4734 13.5313L12.7625 13.3469L20.6812 5.42971C20.7558 5.35764 20.8154 5.27144 20.8563 5.17612C20.8972 5.08081 20.9188 4.97829 20.9197 4.87456C20.9206 4.77082 20.9008 4.66795 20.8616 4.57194C20.8223 4.47592 20.7643 4.38869 20.6909 4.31534C20.6176 4.24199 20.5303 4.18398 20.4343 4.14469C20.3383 4.10541 20.2354 4.08565 20.1317 4.08655C20.028 4.08745 19.9254 4.109 19.8301 4.14995C19.7348 4.19089 19.6486 4.25041 19.5765 4.32502L11.6562 12.2422L11.4719 13.5313H11.4734ZM21.7859 3.21877C22.0037 3.43643 22.1765 3.69487 22.2944 3.97933C22.4122 4.26378 22.4729 4.56867 22.4729 4.87659C22.4729 5.1845 22.4122 5.48939 22.2944 5.77385C22.1765 6.0583 22.0037 6.31674 21.7859 6.5344L13.6844 14.636C13.5649 14.7559 13.4097 14.8337 13.2422 14.8578L10.664 15.2266C10.5439 15.2438 10.4214 15.2329 10.3062 15.1945C10.191 15.1562 10.0864 15.0915 10.0006 15.0057C9.91472 14.9199 9.85007 14.8152 9.81173 14.7C9.77339 14.5849 9.76241 14.4624 9.77966 14.3422L10.1484 11.7641C10.1721 11.5967 10.2494 11.4416 10.3687 11.3219L18.4718 3.22034C18.9114 2.78095 19.5074 2.53412 20.1289 2.53412C20.7504 2.53412 21.3464 2.78095 21.7859 3.22034V3.21877Z" fill="white"/>
</svg>
